<?xml version="1.0" encoding="UTF-8"?>
<svg id="Calque_1" data-name="Calque 1" xmlns="http://www.w3.org/2000/svg" viewBox="0 0 257.05 235.1">
  <g>
    <path d="M34.03,64.61h0c17.9,0,32.43,14.53,32.43,32.43v129.36c0,4.53-3.68,8.2-8.2,8.2H8.7c-4.53,0-8.2-3.68-8.2-8.2V98.14c0-18.51,15.02-33.53,33.53-33.53Z" fill="#8b0036" stroke="#8b0036" stroke-linecap="round" stroke-miterlimit="10"/>
    <rect x="23.04" y="16.49" width="20.89" height="66.72" rx="3.55" ry="3.55" fill="#8b0036" stroke="#8b0036" stroke-linecap="round" stroke-miterlimit="10"/>
    <rect x="19.51" y="5.27" width="27.48" height="22.77" rx="7.27" ry="7.27" fill="#8b0036" stroke="#8b0036" stroke-linecap="round" stroke-miterlimit="10"/>
  </g>
  <path d="M76.62,83.97h8.85l10.59,35.48c2.31,7.72,3.89,13.98,6.32,21.68h.4c2.43-7.7,4.05-13.95,6.32-21.68l10.52-35.48h8.5l-20.84,65.64h-9.68l-20.97-65.64Z" fill="#8b0036"/>
  <rect x="136.31" y="100.99" width="8.23" height="48.61" fill="#8b0036"/>
  <path d="M160.91,100.99h6.8l.69,7.01h.27c4.63-4.56,9.63-8.21,16.31-8.21,10.24,0,14.84,6.61,14.84,19.01v30.8h-8.23v-29.74c0-9.06-2.74-12.93-9.17-12.93-4.97,0-8.41,2.54-13.29,7.47v35.2h-8.23v-48.61Z" fill="#8b0036"/>
  <path d="M212,125.36c0-16.22,10.61-25.57,22.53-25.57s22.53,9.35,22.53,25.57-10.61,25.44-22.53,25.44-22.53-9.35-22.53-25.44ZM248.55,125.36c0-11.14-5.67-18.72-14.03-18.72s-14.03,7.58-14.03,18.72,5.67,18.59,14.03,18.59,14.03-7.45,14.03-18.59Z" fill="#8b0036"/>
  <g>
    <path d="M79.2,167.54c0-5.08,3.05-8.18,7.23-8.18,2.18,0,3.62.99,4.54,1.94l-1.1,1.31c-.8-.82-1.81-1.49-3.39-1.49-3.17,0-5.21,2.44-5.21,6.36s1.87,6.44,5.23,6.44c1.13,0,2.22-.34,2.84-.92v-4.1h-3.34v-1.66h5.16v6.62c-1.01,1.06-2.74,1.83-4.86,1.83-4.16,0-7.11-3.04-7.11-8.15Z" fill="#555"/>
    <path d="M94.92,159.65h9.08v1.7h-7.08v4.94h5.97v1.7h-5.97v5.73h7.32v1.7h-9.32v-15.75Z" fill="#555"/>
    <path d="M106.43,173.36l1.2-1.38c1.13,1.18,2.71,1.95,4.35,1.95,2.07,0,3.29-1.03,3.29-2.56,0-1.61-1.14-2.12-2.63-2.77l-2.26-1c-1.47-.63-3.19-1.74-3.19-4.06s2.1-4.18,4.96-4.18c1.87,0,3.53.81,4.64,1.95l-1.06,1.29c-.96-.91-2.12-1.48-3.58-1.48-1.77,0-2.94.89-2.94,2.3,0,1.52,1.37,2.09,2.61,2.61l2.25.97c1.82.78,3.25,1.87,3.25,4.21,0,2.49-2.06,4.48-5.37,4.48-2.21,0-4.13-.9-5.51-2.34Z" fill="#555"/>
    <path d="M123.19,161.35h-4.77v-1.7h11.54v1.7h-4.77v14.06h-2v-14.06Z" fill="#555"/>
    <path d="M132.77,159.65h2v15.75h-2v-15.75Z" fill="#555"/>
    <path d="M138.17,167.47c0-5.05,2.78-8.11,6.73-8.11s6.73,3.07,6.73,8.11-2.78,8.22-6.73,8.22-6.73-3.18-6.73-8.22ZM149.56,167.47c0-3.92-1.85-6.35-4.66-6.35s-4.66,2.42-4.66,6.35,1.85,6.46,4.66,6.46,4.66-2.53,4.66-6.46Z" fill="#555"/>
    <path d="M155.02,159.65h2.07l5.7,9.9,1.7,3.26h.1c-.1-1.59-.25-3.37-.25-5.01v-8.15h1.9v15.75h-2.07l-5.7-9.91-1.7-3.25h-.1c.1,1.59.25,3.27.25,4.92v8.24h-1.9v-15.75Z" fill="#555"/>
    <path d="M175.35,159.65h3.94c4.84,0,7.44,2.81,7.44,7.82s-2.6,7.93-7.35,7.93h-4.03v-15.75ZM179.14,173.76c3.68,0,5.52-2.31,5.52-6.29s-1.84-6.18-5.52-6.18h-1.79v12.47h1.79Z" fill="#555"/>
    <path d="M190.11,159.65h9.08v1.7h-7.08v4.94h5.97v1.7h-5.97v5.73h7.32v1.7h-9.32v-15.75Z" fill="#555"/>
    <path d="M206.64,167.54c0-5.08,2.99-8.18,6.99-8.18,1.91,0,3.41.93,4.33,1.94l-1.1,1.31c-.83-.88-1.87-1.49-3.2-1.49-2.98,0-4.96,2.44-4.96,6.36s1.89,6.44,4.88,6.44c1.5,0,2.65-.65,3.65-1.77l1.1,1.26c-1.24,1.45-2.79,2.27-4.83,2.27-3.92,0-6.86-3.04-6.86-8.15Z" fill="#555"/>
    <path d="M224.5,159.65h2.26l5.33,15.75h-2.12l-2.75-8.8c-.57-1.76-1.07-3.49-1.58-5.31h-.1c-.49,1.83-.99,3.55-1.56,5.31l-2.78,8.8h-2.04l5.33-15.75ZM221.97,169.01h7.25v1.6h-7.25v-1.6Z" fill="#555"/>
    <path d="M231.83,159.65h2.12l2.54,8.52c.55,1.85.93,3.35,1.52,5.2h.1c.58-1.85.97-3.35,1.52-5.2l2.52-8.52h2.04l-5,15.75h-2.32l-5.03-15.75Z" fill="#555"/>
    <path d="M246.24,159.65h9.08v1.7h-7.08v4.94h5.97v1.7h-5.97v5.73h7.32v1.7h-9.32v-15.75Z" fill="#555"/>
  </g>
  <circle cx="134.65" cy="68.8" r="4.55" fill="#8b0036"/>
  <circle cx="145.75" cy="68.8" r="4.55" fill="#8b0036"/>
  <circle cx="140.44" cy="75.89" r="4.55" fill="#8b0036"/>
  <circle cx="131.38" cy="76.89" r="4.55" fill="#8b0036"/>
  <circle cx="149.47" cy="76.86" r="4.55" fill="#8b0036"/>
  <circle cx="145.23" cy="84.4" r="4.55" fill="#8b0036"/>
  <circle cx="140.53" cy="91.77" r="4.55" fill="#8b0036"/>
  <circle cx="135.65" cy="84.4" r="4.55" fill="#8b0036"/>
  <path d="M140.14,65.5c1.93,0,1.93-3,0-3s-1.93,3,0,3h0Z" fill="#666"/>
  <path d="M143.92,60.82c1.93,0,1.93-3,0-3s-1.93,3,0,3h0Z" fill="#666"/>
  <path d="M142.08,63.11c1.93,0,1.93-3,0-3s-1.93,3,0,3h0Z" fill="#666"/>
  <path d="M130.31,56.66c.33,1.87,1.86,4.08,4.23,5.78s4.94,2.45,6.82,2.17c-.33-1.87-1.86-4.08-4.23-5.78s-4.94-2.45-6.82-2.17Z" fill="#155724" stroke="#006837" stroke-miterlimit="10" stroke-width=".75"/>
</svg>